<?xml version="1.0" encoding="UTF-8"?>
<svg xmlns="http://www.w3.org/2000/svg" width="1024" height="1024" viewBox="0 0 112 113" role="img" aria-label="Comiio logo solo">
  <title>Comiio logo solo</title>
  <g fill-rule="evenodd" clip-rule="evenodd">
    <path d="" fill="#111827"/>
    <path d="M 26.0 65.0 L 26.0 68.0 L 29.0 68.0 L 29.0 65.0 Z M 11.0 48.0 L 10.0 50.0 L 10.0 64.0 L 14.0 76.0 L 20.0 81.0 L 28.0 81.0 L 22.0 71.0 L 20.0 65.0 L 20.0 61.0 L 19.0 60.0 L 19.0 54.0 L 15.0 52.0 Z M 84.0 36.0 L 82.0 36.0 L 83.0 42.0 L 84.0 41.0 L 84.0 38.0 L 83.0 37.0 Z M 77.0 32.0 L 75.0 35.0 L 75.0 37.0 L 78.0 42.0 L 78.0 45.0 L 80.0 42.0 L 80.0 39.0 L 78.0 37.0 L 77.0 34.0 L 78.0 32.0 Z M 93.0 27.0 L 85.0 19.0 L 77.0 14.0 L 79.0 20.0 L 79.0 24.0 L 78.0 25.0 L 79.0 27.0 L 85.0 32.0 L 89.0 38.0 L 93.0 50.0 L 93.0 64.0 L 91.0 70.0 L 86.0 79.0 L 77.0 88.0 L 70.0 92.0 L 64.0 93.0 L 63.0 94.0 L 51.0 94.0 L 50.0 93.0 L 46.0 93.0 L 37.0 88.0 L 47.0 81.0 L 52.0 76.0 L 59.0 76.0 L 71.0 62.0 L 71.0 60.0 L 70.0 60.0 L 60.0 70.0 L 58.0 69.0 L 67.0 60.0 L 68.0 57.0 L 67.0 57.0 L 56.0 67.0 L 55.0 65.0 L 64.0 56.0 L 64.0 54.0 L 61.0 55.0 L 50.0 65.0 L 49.0 67.0 L 49.0 71.0 L 50.0 72.0 L 47.0 75.0 L 40.0 80.0 L 36.0 81.0 L 33.0 83.0 L 30.0 83.0 L 29.0 84.0 L 21.0 84.0 L 16.0 82.0 L 10.0 76.0 L 10.0 73.0 L 9.0 70.0 L 8.0 70.0 L 8.0 77.0 L 10.0 83.0 L 15.0 88.0 L 21.0 90.0 L 24.0 90.0 L 34.0 98.0 L 48.0 103.0 L 53.0 103.0 L 54.0 104.0 L 66.0 103.0 L 75.0 100.0 L 82.0 96.0 L 91.0 88.0 L 96.0 81.0 L 100.0 73.0 L 100.0 70.0 L 102.0 65.0 L 102.0 49.0 L 101.0 48.0 L 101.0 43.0 Z M 33.0 11.0 L 25.0 18.0 L 24.0 21.0 L 22.0 23.0 L 17.0 25.0 L 12.0 30.0 L 11.0 33.0 L 11.0 42.0 L 13.0 46.0 L 19.0 51.0 L 22.0 52.0 L 30.0 51.0 L 31.0 52.0 L 34.0 61.0 L 34.0 71.0 L 37.0 77.0 L 39.0 77.0 L 42.0 75.0 L 40.0 71.0 L 40.0 66.0 L 39.0 64.0 L 40.0 63.0 L 40.0 60.0 L 43.0 56.0 L 46.0 55.0 L 48.0 53.0 L 57.0 50.0 L 70.0 50.0 L 77.0 58.0 L 78.0 69.0 L 76.0 72.0 L 76.0 74.0 L 70.0 81.0 L 62.0 84.0 L 67.0 84.0 L 68.0 83.0 L 71.0 84.0 L 68.0 86.0 L 57.0 86.0 L 51.0 83.0 L 49.0 83.0 L 45.0 86.0 L 49.0 89.0 L 52.0 90.0 L 58.0 90.0 L 59.0 91.0 L 60.0 90.0 L 68.0 89.0 L 74.0 86.0 L 81.0 78.0 L 83.0 74.0 L 81.0 73.0 L 83.0 69.0 L 83.0 58.0 L 87.0 56.0 L 89.0 53.0 L 89.0 50.0 L 87.0 47.0 L 83.0 46.0 L 78.0 50.0 L 73.0 45.0 L 69.0 44.0 L 66.0 41.0 L 65.0 38.0 L 72.0 33.0 L 75.0 27.0 L 75.0 18.0 L 74.0 15.0 L 69.0 10.0 L 64.0 8.0 L 56.0 8.0 L 50.0 12.0 L 45.0 10.0 L 37.0 10.0 L 36.0 11.0 Z M 70.0 83.0 L 71.0 82.0 L 73.0 83.0 L 72.0 84.0 Z M 72.0 82.0 L 73.0 81.0 L 75.0 82.0 L 74.0 83.0 Z M 74.0 81.0 L 75.0 80.0 L 76.0 81.0 L 75.0 82.0 Z M 75.0 80.0 L 76.0 79.0 L 77.0 80.0 L 76.0 81.0 Z M 76.0 79.0 L 78.0 77.0 L 79.0 78.0 L 78.0 80.0 Z M 78.0 77.0 L 79.0 76.0 L 80.0 77.0 L 79.0 78.0 Z M 79.0 76.0 L 80.0 75.0 L 81.0 76.0 L 80.0 77.0 Z M 80.0 74.0 L 81.0 73.0 L 82.0 75.0 L 81.0 76.0 Z M 81.0 51.0 L 83.0 49.0 L 85.0 49.0 L 86.0 50.0 L 86.0 53.0 L 83.0 54.0 Z M 71.0 20.0 L 70.0 27.0 L 63.0 33.0 L 55.0 34.0 L 54.0 33.0 L 50.0 33.0 L 45.0 31.0 L 42.0 31.0 L 37.0 33.0 L 43.0 33.0 L 52.0 37.0 L 60.0 38.0 L 62.0 40.0 L 62.0 43.0 L 63.0 44.0 L 59.0 46.0 L 55.0 46.0 L 54.0 47.0 L 48.0 48.0 L 41.0 52.0 L 38.0 55.0 L 36.0 54.0 L 35.0 48.0 L 39.0 44.0 L 49.0 40.0 L 41.0 40.0 L 38.0 41.0 L 29.0 47.0 L 22.0 47.0 L 16.0 42.0 L 15.0 39.0 L 16.0 32.0 L 19.0 29.0 L 23.0 27.0 L 26.0 33.0 L 27.0 33.0 L 27.0 24.0 L 29.0 20.0 L 35.0 15.0 L 38.0 15.0 L 39.0 14.0 L 47.0 15.0 L 50.0 17.0 L 54.0 22.0 L 55.0 22.0 L 53.0 16.0 L 56.0 13.0 L 62.0 12.0 L 65.0 13.0 Z" fill="#ff6a00"/>
  </g>
</svg>