<?xml version="1.0" encoding="UTF-8"?>
<svg xmlns="http://www.w3.org/2000/svg" width="1400" height="953" viewBox="197 130 1044 711" version="1.1">
  <title>comiio logo</title>
  <desc>Versión vectorial del logo comiio sin claim inferior, con fondo transparente.</desc>
  <path d="M 894.0 643.0 L 893.0 644.0 L 887.0 645.0 L 884.0 647.0 L 879.0 653.0 L 877.0 658.0 L 877.0 791.0 L 880.0 797.0 L 885.0 802.0 L 892.0 805.0 L 905.0 805.0 L 913.0 801.0 L 918.0 795.0 L 920.0 790.0 L 920.0 659.0 L 917.0 652.0 L 911.0 646.0 L 906.0 644.0 L 903.0 644.0 L 902.0 643.0 Z M 599.0 652.0 L 596.0 660.0 L 596.0 788.0 L 599.0 796.0 L 605.0 802.0 L 611.0 805.0 L 624.0 805.0 L 634.0 800.0 L 639.0 793.0 L 641.0 705.0 L 645.0 695.0 L 654.0 686.0 L 668.0 681.0 L 679.0 682.0 L 691.0 690.0 L 697.0 701.0 L 698.0 786.0 L 700.0 794.0 L 707.0 802.0 L 715.0 805.0 L 726.0 805.0 L 739.0 797.0 L 742.0 790.0 L 742.0 710.0 L 744.0 701.0 L 753.0 688.0 L 769.0 681.0 L 777.0 681.0 L 788.0 685.0 L 796.0 693.0 L 800.0 701.0 L 801.0 789.0 L 808.0 801.0 L 816.0 805.0 L 832.0 804.0 L 841.0 797.0 L 844.0 790.0 L 844.0 695.0 L 841.0 681.0 L 835.0 668.0 L 818.0 651.0 L 797.0 643.0 L 772.0 643.0 L 752.0 650.0 L 733.0 666.0 L 712.0 648.0 L 689.0 642.0 L 662.0 646.0 L 647.0 655.0 L 640.0 663.0 L 633.0 648.0 L 626.0 644.0 L 609.0 644.0 Z M 463.0 644.0 L 451.0 648.0 L 444.0 652.0 L 442.0 652.0 L 434.0 657.0 L 417.0 673.0 L 412.0 680.0 L 404.0 697.0 L 403.0 703.0 L 402.0 704.0 L 402.0 708.0 L 401.0 709.0 L 401.0 715.0 L 400.0 716.0 L 400.0 732.0 L 401.0 733.0 L 401.0 739.0 L 402.0 740.0 L 402.0 744.0 L 404.0 748.0 L 405.0 754.0 L 413.0 770.0 L 420.0 779.0 L 432.0 790.0 L 450.0 800.0 L 462.0 804.0 L 473.0 805.0 L 474.0 806.0 L 496.0 806.0 L 497.0 805.0 L 507.0 804.0 L 511.0 802.0 L 520.0 800.0 L 535.0 792.0 L 544.0 785.0 L 554.0 774.0 L 561.0 763.0 L 561.0 761.0 L 564.0 756.0 L 567.0 747.0 L 568.0 739.0 L 569.0 738.0 L 569.0 730.0 L 570.0 729.0 L 569.0 710.0 L 568.0 709.0 L 568.0 705.0 L 567.0 704.0 L 565.0 695.0 L 559.0 682.0 L 553.0 673.0 L 540.0 660.0 L 528.0 652.0 L 514.0 646.0 L 511.0 646.0 L 502.0 643.0 L 495.0 643.0 L 494.0 642.0 L 476.0 642.0 L 475.0 643.0 Z M 481.0 680.0 L 495.0 681.0 L 496.0 682.0 L 501.0 683.0 L 511.0 689.0 L 521.0 700.0 L 523.0 704.0 L 523.0 706.0 L 525.0 709.0 L 525.0 711.0 L 526.0 712.0 L 526.0 717.0 L 527.0 718.0 L 527.0 731.0 L 526.0 732.0 L 526.0 736.0 L 525.0 737.0 L 524.0 742.0 L 518.0 752.0 L 506.0 763.0 L 500.0 766.0 L 497.0 766.0 L 492.0 768.0 L 478.0 768.0 L 477.0 767.0 L 474.0 767.0 L 473.0 766.0 L 468.0 765.0 L 461.0 761.0 L 450.0 749.0 L 446.0 741.0 L 446.0 739.0 L 444.0 735.0 L 444.0 731.0 L 443.0 730.0 L 443.0 718.0 L 444.0 717.0 L 444.0 713.0 L 445.0 712.0 L 447.0 704.0 L 452.0 696.0 L 463.0 686.0 L 469.0 683.0 L 471.0 683.0 L 475.0 681.0 L 480.0 681.0 Z M 294.0 644.0 L 280.0 649.0 L 266.0 657.0 L 249.0 673.0 L 243.0 682.0 L 235.0 701.0 L 232.0 719.0 L 233.0 738.0 L 238.0 756.0 L 250.0 776.0 L 262.0 788.0 L 278.0 798.0 L 292.0 803.0 L 307.0 806.0 L 328.0 806.0 L 350.0 801.0 L 367.0 792.0 L 379.0 781.0 L 382.0 775.0 L 382.0 765.0 L 380.0 761.0 L 375.0 756.0 L 361.0 749.0 L 356.0 749.0 L 352.0 751.0 L 342.0 761.0 L 329.0 767.0 L 311.0 768.0 L 301.0 765.0 L 293.0 760.0 L 281.0 746.0 L 276.0 731.0 L 276.0 717.0 L 279.0 706.0 L 285.0 696.0 L 293.0 688.0 L 302.0 683.0 L 314.0 680.0 L 332.0 682.0 L 345.0 689.0 L 352.0 696.0 L 356.0 698.0 L 360.0 698.0 L 373.0 691.0 L 380.0 685.0 L 382.0 681.0 L 382.0 671.0 L 379.0 666.0 L 366.0 655.0 L 345.0 645.0 L 331.0 642.0 L 306.0 642.0 Z" fill="#202124" fill-rule="evenodd"/>
  <path d="M 1097.0 643.0 L 1085.0 647.0 L 1067.0 657.0 L 1054.0 669.0 L 1046.0 680.0 L 1038.0 697.0 L 1038.0 700.0 L 1035.0 709.0 L 1034.0 729.0 L 1035.0 730.0 L 1035.0 738.0 L 1036.0 739.0 L 1037.0 746.0 L 1041.0 758.0 L 1049.0 772.0 L 1063.0 787.0 L 1071.0 793.0 L 1090.0 802.0 L 1093.0 802.0 L 1101.0 805.0 L 1106.0 805.0 L 1107.0 806.0 L 1133.0 806.0 L 1134.0 805.0 L 1147.0 803.0 L 1156.0 799.0 L 1158.0 799.0 L 1175.0 789.0 L 1187.0 778.0 L 1195.0 767.0 L 1201.0 755.0 L 1205.0 742.0 L 1205.0 738.0 L 1206.0 737.0 L 1206.0 710.0 L 1205.0 709.0 L 1204.0 701.0 L 1201.0 692.0 L 1191.0 674.0 L 1181.0 663.0 L 1166.0 652.0 L 1147.0 644.0 L 1144.0 644.0 L 1139.0 642.0 L 1133.0 642.0 L 1132.0 641.0 L 1108.0 641.0 L 1107.0 642.0 Z M 1117.0 680.0 L 1130.0 681.0 L 1131.0 682.0 L 1136.0 683.0 L 1146.0 689.0 L 1155.0 699.0 L 1160.0 710.0 L 1161.0 720.0 L 1162.0 721.0 L 1161.0 734.0 L 1160.0 735.0 L 1158.0 743.0 L 1151.0 754.0 L 1140.0 763.0 L 1130.0 767.0 L 1124.0 767.0 L 1123.0 768.0 L 1117.0 768.0 L 1116.0 767.0 L 1107.0 766.0 L 1096.0 760.0 L 1085.0 748.0 L 1082.0 742.0 L 1082.0 740.0 L 1080.0 736.0 L 1080.0 732.0 L 1079.0 731.0 L 1079.0 715.0 L 1080.0 714.0 L 1081.0 708.0 L 1087.0 697.0 L 1097.0 687.0 L 1107.0 682.0 L 1116.0 681.0 Z M 979.0 641.0 L 969.0 645.0 L 964.0 650.0 L 961.0 656.0 L 961.0 660.0 L 960.0 661.0 L 960.0 786.0 L 961.0 787.0 L 961.0 791.0 L 964.0 797.0 L 969.0 802.0 L 972.0 804.0 L 978.0 805.0 L 979.0 806.0 L 986.0 806.0 L 987.0 805.0 L 991.0 805.0 L 997.0 802.0 L 1002.0 797.0 L 1005.0 790.0 L 1005.0 657.0 L 1002.0 650.0 L 997.0 645.0 L 991.0 642.0 Z M 978.0 537.0 L 978.0 544.0 L 974.0 554.0 L 961.0 568.0 L 953.0 580.0 L 952.0 586.0 L 951.0 587.0 L 951.0 599.0 L 952.0 600.0 L 953.0 605.0 L 955.0 607.0 L 956.0 610.0 L 963.0 617.0 L 969.0 620.0 L 969.0 618.0 L 973.0 608.0 L 973.0 605.0 L 967.0 598.0 L 967.0 596.0 L 970.0 594.0 L 975.0 595.0 L 979.0 591.0 L 981.0 586.0 L 982.0 585.0 L 984.0 585.0 L 986.0 588.0 L 987.0 592.0 L 990.0 595.0 L 998.0 595.0 L 999.0 596.0 L 999.0 597.0 L 994.0 602.0 L 992.0 606.0 L 993.0 612.0 L 997.0 620.0 L 1005.0 615.0 L 1009.0 611.0 L 1013.0 605.0 L 1013.0 603.0 L 1015.0 599.0 L 1015.0 581.0 L 1009.0 567.0 L 1005.0 562.0 L 1004.0 562.0 L 1004.0 564.0 L 1002.0 568.0 L 998.0 572.0 L 996.0 573.0 L 994.0 572.0 L 994.0 570.0 L 995.0 569.0 L 995.0 560.0 L 994.0 559.0 L 993.0 553.0 L 988.0 544.0 L 984.0 540.0 Z M 869.0 454.0 L 862.0 467.0 L 847.0 484.0 L 846.0 484.0 L 840.0 490.0 L 833.0 495.0 L 830.0 496.0 L 823.0 501.0 L 821.0 501.0 L 814.0 505.0 L 812.0 505.0 L 805.0 508.0 L 797.0 509.0 L 796.0 510.0 L 791.0 510.0 L 790.0 511.0 L 782.0 511.0 L 781.0 512.0 L 766.0 511.0 L 765.0 510.0 L 760.0 510.0 L 756.0 508.0 L 753.0 508.0 L 752.0 507.0 L 749.0 507.0 L 746.0 505.0 L 744.0 505.0 L 739.0 502.0 L 737.0 502.0 L 735.0 500.0 L 730.0 498.0 L 724.0 494.0 L 710.0 506.0 L 705.0 509.0 L 704.0 511.0 L 711.0 516.0 L 726.0 523.0 L 728.0 523.0 L 735.0 526.0 L 743.0 527.0 L 744.0 528.0 L 749.0 528.0 L 750.0 529.0 L 769.0 530.0 L 770.0 529.0 L 785.0 528.0 L 786.0 527.0 L 793.0 526.0 L 797.0 524.0 L 800.0 524.0 L 803.0 522.0 L 808.0 521.0 L 828.0 510.0 L 836.0 504.0 L 850.0 490.0 L 860.0 476.0 L 867.0 462.0 L 867.0 460.0 L 869.0 457.0 Z M 622.0 415.0 L 618.0 420.0 L 618.0 426.0 L 619.0 428.0 L 623.0 431.0 L 629.0 431.0 L 631.0 430.0 L 634.0 426.0 L 634.0 420.0 L 633.0 418.0 L 630.0 415.0 Z M 553.0 341.0 L 552.0 350.0 L 551.0 351.0 L 551.0 358.0 L 550.0 359.0 L 550.0 369.0 L 549.0 370.0 L 549.0 394.0 L 550.0 395.0 L 550.0 405.0 L 551.0 406.0 L 551.0 413.0 L 552.0 414.0 L 552.0 418.0 L 553.0 419.0 L 553.0 424.0 L 554.0 425.0 L 555.0 433.0 L 557.0 437.0 L 557.0 440.0 L 558.0 441.0 L 560.0 449.0 L 562.0 452.0 L 563.0 457.0 L 567.0 465.0 L 571.0 471.0 L 579.0 479.0 L 590.0 485.0 L 592.0 485.0 L 596.0 487.0 L 599.0 487.0 L 600.0 488.0 L 606.0 488.0 L 607.0 489.0 L 617.0 489.0 L 618.0 488.0 L 627.0 488.0 L 629.0 487.0 L 613.0 464.0 L 604.0 446.0 L 604.0 444.0 L 602.0 441.0 L 602.0 439.0 L 596.0 423.0 L 596.0 420.0 L 594.0 415.0 L 594.0 411.0 L 593.0 410.0 L 593.0 405.0 L 592.0 404.0 L 592.0 398.0 L 591.0 397.0 L 591.0 369.0 L 590.0 368.0 L 585.0 367.0 L 582.0 365.0 L 580.0 365.0 L 578.0 363.0 L 569.0 358.0 L 560.0 350.0 L 560.0 349.0 Z M 873.0 286.0 L 870.0 288.0 L 867.0 292.0 L 867.0 299.0 L 869.0 302.0 L 869.0 304.0 L 871.0 308.0 L 871.0 313.0 L 870.0 315.0 L 873.0 314.0 L 877.0 309.0 L 877.0 303.0 L 873.0 294.0 L 873.0 288.0 L 874.0 287.0 Z M 849.0 270.0 L 845.0 272.0 L 842.0 275.0 L 837.0 284.0 L 837.0 295.0 L 848.0 317.0 L 848.0 323.0 L 846.0 328.0 L 849.0 327.0 L 852.0 324.0 L 857.0 314.0 L 857.0 305.0 L 856.0 304.0 L 856.0 302.0 L 853.0 296.0 L 851.0 294.0 L 847.0 285.0 L 847.0 275.0 Z M 915.0 251.0 L 882.0 216.0 L 843.0 192.0 L 852.0 217.0 L 851.0 245.0 L 874.0 266.0 L 893.0 292.0 L 909.0 329.0 L 916.0 365.0 L 914.0 410.0 L 903.0 446.0 L 878.0 487.0 L 846.0 517.0 L 813.0 536.0 L 768.0 547.0 L 710.0 541.0 L 665.0 519.0 L 704.0 493.0 L 735.0 464.0 L 756.0 467.0 L 769.0 462.0 L 818.0 404.0 L 819.0 397.0 L 813.0 396.0 L 769.0 441.0 L 761.0 437.0 L 803.0 390.0 L 803.0 381.0 L 752.0 426.0 L 744.0 421.0 L 790.0 373.0 L 789.0 367.0 L 781.0 369.0 L 726.0 417.0 L 720.0 432.0 L 724.0 451.0 L 684.0 481.0 L 644.0 498.0 L 603.0 502.0 L 572.0 491.0 L 553.0 471.0 L 543.0 434.0 L 541.0 470.0 L 553.0 501.0 L 578.0 522.0 L 613.0 529.0 L 664.0 567.0 L 723.0 586.0 L 759.0 588.0 L 794.0 584.0 L 840.0 568.0 L 870.0 550.0 L 906.0 517.0 L 927.0 488.0 L 944.0 453.0 L 955.0 410.0 L 957.0 370.0 L 949.0 321.0 L 933.0 280.0 Z M 651.0 180.0 L 623.0 200.0 L 605.0 231.0 L 581.0 240.0 L 560.0 262.0 L 552.0 284.0 L 552.0 306.0 L 561.0 330.0 L 572.0 343.0 L 593.0 356.0 L 610.0 360.0 L 637.0 356.0 L 640.0 358.0 L 655.0 402.0 L 655.0 438.0 L 668.0 473.0 L 690.0 461.0 L 681.0 437.0 L 679.0 414.0 L 683.0 394.0 L 691.0 381.0 L 720.0 364.0 L 753.0 353.0 L 783.0 349.0 L 813.0 352.0 L 832.0 368.0 L 843.0 386.0 L 849.0 413.0 L 847.0 437.0 L 836.0 463.0 L 817.0 484.0 L 796.0 496.0 L 773.0 501.0 L 797.0 501.0 L 823.0 492.0 L 849.0 472.0 L 867.0 444.0 L 873.0 419.0 L 872.0 396.0 L 868.0 381.0 L 878.0 381.0 L 888.0 377.0 L 898.0 363.0 L 897.0 349.0 L 885.0 336.0 L 878.0 334.0 L 865.0 336.0 L 850.0 351.0 L 825.0 329.0 L 800.0 319.0 L 793.0 294.0 L 810.0 285.0 L 824.0 272.0 L 837.0 246.0 L 838.0 219.0 L 832.0 200.0 L 825.0 189.0 L 810.0 175.0 L 785.0 165.0 L 753.0 167.0 L 725.0 183.0 L 697.0 174.0 L 673.0 174.0 Z M 871.0 346.0 L 879.0 346.0 L 882.0 348.0 L 886.0 353.0 L 886.0 361.0 L 880.0 368.0 L 878.0 368.0 L 877.0 369.0 L 872.0 369.0 L 870.0 368.0 L 864.0 361.0 L 864.0 353.0 L 865.0 351.0 Z M 814.0 210.0 L 818.0 224.0 L 815.0 245.0 L 802.0 264.0 L 784.0 275.0 L 767.0 279.0 L 749.0 279.0 L 705.0 269.0 L 685.0 269.0 L 666.0 277.0 L 692.0 276.0 L 742.0 295.0 L 774.0 298.0 L 782.0 324.0 L 781.0 329.0 L 751.0 333.0 L 719.0 343.0 L 695.0 355.0 L 668.0 375.0 L 657.0 343.0 L 670.0 331.0 L 688.0 319.0 L 701.0 313.0 L 724.0 307.0 L 702.0 305.0 L 681.0 309.0 L 658.0 320.0 L 634.0 336.0 L 620.0 339.0 L 606.0 338.0 L 595.0 334.0 L 580.0 321.0 L 572.0 303.0 L 572.0 286.0 L 579.0 269.0 L 593.0 256.0 L 609.0 250.0 L 616.0 268.0 L 624.0 278.0 L 622.0 250.0 L 627.0 230.0 L 635.0 217.0 L 646.0 206.0 L 657.0 199.0 L 679.0 193.0 L 698.0 194.0 L 712.0 198.0 L 730.0 209.0 L 742.0 221.0 L 749.0 232.0 L 745.0 215.0 L 737.0 199.0 L 754.0 187.0 L 777.0 184.0 L 791.0 188.0 L 801.0 194.0 Z" fill="#ff5a00" fill-rule="evenodd"/>
</svg>
